# xmcd CD database file
#
# Track frame offsets:
#	150
#	15414
#	40022
#	58600
#	84994
#
# Disc length: 4440 seconds
#
# Revision: 0
# Processed by: cddbd v1.5.1PL0 Copyright (c) Steve Scherf et al.
# Submitted via: CDex 1.51
#
DISCID=2c115605
DTITLE=Jackson vibe - 朝焼けの旅路
DYEAR=2004
DGENRE=JPop
TTITLE0=朝焼けの旅路
TTITLE1=八月
TTITLE2=GOD OF MUSIC
TTITLE3=外は雨
TTITLE4=DATA　TRACK
EXTD=YEAR: 2004
EXTT0=
EXTT1=
EXTT2=
EXTT3=
EXTT4=
PLAYORDER=
